<svg width="28" height="38" viewBox="0 0 28 38" fill="none" xmlns="http://www.w3.org/2000/svg">
<g id="head/Hijab">
<path id="Path 2" fill-rule="evenodd" clip-rule="evenodd" d="M15.6215 6.18398C24.1011 6.4544 24.6126 10.5117 24.6126 17.3159C24.6126 24.1201 20.2137 28.4077 18.594 29.1564C16.9743 29.9051 12.7093 33.1209 8.86044 31.639C5.01156 30.157 6.12614 23.896 6.12614 21.2059C6.12614 18.5157 7.14194 5.91355 15.6215 6.18398Z" fill="white"/>
<path id="&#240;&#159;&#150;&#141; Ink" fill-rule="evenodd" clip-rule="evenodd" d="M19.0615 26.9219C17.5043 27.7976 15.7213 27.8316 14.0463 27.2806C13.0418 26.9509 12.1207 26.4412 11.2587 25.8317C10.5089 25.3011 9.83956 24.7126 9.17646 24.0877C8.63054 22.875 8.1444 21.6644 7.91674 20.345C7.7128 19.1606 7.68576 17.9308 7.92238 16.7486C9.67229 15.2986 11.4114 13.8367 13.1483 12.3703C14.0328 11.6234 14.9196 10.8806 15.817 10.1496C16.2728 9.77842 16.7241 9.40159 17.1782 9.02873C17.2531 8.96744 17.3275 8.90615 17.4024 8.84486C18.3398 9.53609 19.3449 10.1286 20.2757 10.8312C20.7629 11.1995 21.2367 11.5916 21.688 12.0042C21.9246 12.2204 22.1557 12.4435 22.381 12.6722C22.5872 12.8811 22.786 13.1807 23.0785 13.2596C23.1185 13.2703 23.1562 13.2726 23.1917 13.2675C23.5827 16.7157 23.8604 20.4392 22.1855 23.5707C21.4548 24.9367 20.4188 26.158 19.0615 26.9219ZM8.93145 28.1892C8.71702 27.9913 9.03657 27.6711 9.25009 27.8681C10.5913 29.1056 12.3446 29.7616 14.1157 30.0653C14.4014 30.1143 14.2796 30.5517 13.9958 30.503C12.1468 30.186 10.3294 29.4791 8.93145 28.1892ZM7.32209 30.088C7.06609 29.9496 7.29398 29.5578 7.54953 29.6959C8.59443 30.2604 9.74052 30.5537 10.903 30.7518C11.1889 30.8005 11.0669 31.2379 10.7832 31.1896C9.58125 30.9848 8.40181 30.6712 7.32209 30.088ZM11.5748 10.9612C12.4418 10.1774 13.3736 9.43161 14.3579 8.80229C15.3539 8.16554 16.4418 7.78474 17.6176 7.77566C17.5353 7.84206 17.457 7.91584 17.3776 7.98445C17.1557 8.17576 16.9342 8.36814 16.7128 8.55996C16.27 8.94417 15.826 9.32775 15.3889 9.71826C14.528 10.4878 13.6643 11.2534 12.8052 12.0246C11.1539 13.507 9.53821 15.0216 7.95731 16.5801C7.96581 16.5421 7.97483 16.504 7.98378 16.4661C8.50716 14.2641 9.93083 12.4474 11.5748 10.9612ZM18.3714 7.87157C18.377 7.85454 18.381 7.83803 18.3833 7.8222C20.6396 8.11844 22.5241 9.79085 23.1472 11.9929C23.0931 12.0689 23.0632 12.1591 23.0745 12.255C23.0801 12.3033 23.0858 12.3521 23.0914 12.4003C23.0142 12.3232 22.9348 12.2511 22.8672 12.1824C22.6424 11.9531 22.412 11.73 22.1753 11.5127C21.6914 11.0684 21.1889 10.653 20.6593 10.2653C19.7382 9.59114 18.741 8.97141 17.6429 8.64793C17.7151 8.58834 17.7872 8.52875 17.8599 8.46973C18.0767 8.29204 18.2779 8.14568 18.3714 7.87157ZM22.4165 5.51695C21.0312 3.99204 19.1128 2.87517 17.0926 2.48699C15.1635 2.11584 13.1663 2.36043 11.3438 3.08174C7.53026 4.59133 4.52125 7.91078 3.11224 11.7573C2.29083 13.9985 2.02153 16.4552 2.26835 18.8274C2.51393 21.1888 3.21984 23.6275 4.50435 25.6365C4.62209 25.8204 4.75111 25.9968 4.88632 26.1677C4.82604 26.8612 4.59618 27.5411 4.23449 28.1324C4.21505 28.1641 4.19455 28.1952 4.17426 28.2263C3.8039 28.5057 3.41973 28.7679 3.04469 29.0386C2.71967 29.2731 2.39798 29.5136 2.09235 29.7734C1.80384 30.0186 1.4688 30.2917 1.27347 30.6227C1.11342 30.8938 1.04807 31.2624 1.26655 31.5209C1.52981 31.8324 1.9759 31.7226 2.33252 31.7226C2.36305 31.7226 2.39353 31.7232 2.42401 31.7236C2.53111 31.7914 2.64142 31.8527 2.74829 31.9097C3.82829 32.4864 4.91224 33.0567 5.99731 33.6242C8.15849 34.7553 10.3106 35.9318 12.5162 36.9732C13.5382 37.4561 14.6323 37.8783 15.777 37.8766C16.8509 37.8749 17.8215 37.4453 18.6598 36.7921C19.6153 36.048 20.4143 35.1032 21.1894 34.1771C21.4993 33.8064 21.8029 33.4313 22.101 33.0511C22.6734 32.8587 23.2412 32.8025 23.7517 33.1736C24.1612 33.4716 24.701 33.0664 24.7105 32.6191C24.7139 32.4603 24.7072 32.3036 24.6903 32.1493C24.5878 31.1958 24.1246 30.3332 23.6029 29.5331C23.3179 29.0955 23.0176 28.6658 22.7156 28.2402C22.6446 28.1398 22.5748 28.0393 22.5072 27.9371C23.7201 26.1382 24.6824 24.1433 25.2739 22.0588C25.8954 19.8654 26.1067 17.5908 25.9681 15.3179C25.7551 11.8345 24.8064 8.14795 22.4165 5.51695Z" fill="black"/>
</g>
</svg>
